<?xml version="1.0" encoding="UTF-8"?>
<svg id="Layer_2" data-name="Layer 2" xmlns="http://www.w3.org/2000/svg" viewBox="0 0 205.43 205.43">
  <defs>
    <style>
      .cls-1 {
        fill: #fff;
      }

      .cls-2 {
        fill: #ffeb25;
      }

      .cls-3 {
        fill: #00aff0;
      }

      .cls-4 {
        fill: #1f5daa;
      }

      .cls-5 {
        fill: #fff206;
      }

      .cls-6 {
        fill: none;
      }
    </style>
  </defs>
  <g id="Layer_1-2" data-name="Layer 1">
    <g>
      <circle class="cls-4" cx="102.72" cy="102.72" r="102.72"/>
      <g>
        <circle class="cls-6" cx="102.08" cy="102.72" r="72.78"/>
        <path class="cls-3" d="M102.08,5.19C48.31,5.19,4.56,48.94,4.56,102.72s43.75,97.52,97.53,97.52,97.53-43.75,97.53-97.52S155.86,5.19,102.08,5.19Zm0,172.49c-41.33,0-74.96-33.63-74.96-74.96S60.75,27.75,102.08,27.75s74.96,33.63,74.96,74.96-33.63,74.96-74.96,74.96Z"/>
        <path class="cls-1" d="M102.08,28.84c-40.73,0-73.87,33.14-73.87,73.87s33.14,73.87,73.87,73.87,73.87-33.14,73.87-73.87S142.81,28.84,102.08,28.84Zm0,146.65c-40.13,0-72.78-32.65-72.78-72.78S61.95,29.94,102.08,29.94s72.78,32.65,72.78,72.78-32.65,72.78-72.78,72.78Z"/>
        <path class="cls-1" d="M102.08,27.75c-41.33,0-74.96,33.63-74.96,74.96s33.63,74.96,74.96,74.96,74.96-33.63,74.96-74.96S143.42,27.75,102.08,27.75Zm0,148.83c-40.73,0-73.87-33.14-73.87-73.87S61.35,28.84,102.08,28.84s73.87,33.14,73.87,73.87-33.14,73.87-73.87,73.87Z"/>
      </g>
      <g>
        <g>
          <path class="cls-2" d="M153.15,121.57s-29.27-11.69-50.43,5.03c0,0,24.84-8.82,51.96,.95l-1.52-5.97Z"/>
          <path class="cls-1" d="M151,118.15l-3.8-6.81c-29.27-5.64-43.81,13.56-43.81,13.56,24.42-15.88,47.61-6.75,47.61-6.75Z"/>
          <path class="cls-1" d="M143.67,108.89l-5.1-5.78c-28.44,0-35.19,20.21-35.19,20.21,11.75-17.75,40.29-14.43,40.29-14.43Z"/>
          <path class="cls-2" d="M52.28,121.57l-1.52,5.97c27.12-9.77,51.96-.95,51.96-.95-21.16-16.71-50.43-5.03-50.43-5.03Z"/>
          <path class="cls-1" d="M102.04,124.9s-14.53-19.2-43.81-13.56l-3.8,6.81s23.19-9.13,47.61,6.75Z"/>
          <path class="cls-1" d="M102.04,123.32s-6.75-20.21-35.19-20.21l-5.1,5.78s28.54-3.32,40.29,14.43Z"/>
        </g>
        <g>
          <path class="cls-5" d="M126.14,73.48c-.56-2.19-1.42-4.31-2.6-6.3l1.24-5.17-9.7,9.7c3.56,5.65,2.89,13.2-2.03,18.12-2.34,2.34-5.29,3.71-8.33,4.13l3.8-3.8h0l1.03-1.03v-8.14l.25-.1c1.01-.4,1.67-1.37,1.67-2.45,0-1.46-1.19-2.64-2.64-2.64s-2.64,1.19-2.64,2.64c0,1.09,.66,2.05,1.67,2.46l.16,.06v7.53l-4.53,4.53v-18.56l.2-.08c1.01-.4,1.67-1.37,1.67-2.45,0-1.46-1.19-2.64-2.64-2.64s-2.64,1.19-2.64,2.64c0,1.09,.66,2.05,1.67,2.45l.2,.08v19.62c-1.56-.08-3.11-.42-4.58-.99v-7.83l.2-.08c1.01-.4,1.67-1.37,1.67-2.45,0-1.46-1.19-2.64-2.64-2.64s-2.64,1.19-2.64,2.64c0,1.09,.66,2.05,1.67,2.45l.2,.08v7.12c-.31-.16-.61-.33-.91-.52l-9.7,9.7,5.17-1.24c1.99,1.18,4.12,2.04,6.3,2.6l.86,4.54h10.3l.86-4.55c2.19-.56,4.31-1.42,6.3-2.6l3.82,2.6,7.28-7.28-2.6-3.82c1.18-1.99,2.04-4.11,2.6-6.3l4.55-.87v-10.3s-4.54-.86-4.54-.86Z"/>
          <path class="cls-5" d="M90.34,87.27c-3.56-5.65-2.89-13.2,2.03-18.12,4.92-4.92,12.48-5.6,18.12-2.03l9.7-9.7-5.16,1.25c-1.99-1.18-4.12-2.05-6.31-2.61l-.86-4.54h-10.3l-.86,4.53c-2.19,.56-4.32,1.43-6.31,2.61l-3.81-2.59-7.28,7.28,2.59,3.81c-1.18,1.99-2.05,4.12-2.61,6.31l-4.53,.86v10.3l4.54,.86c.56,2.19,1.43,4.32,2.61,6.31l-1.25,5.16,9.7-9.7Z"/>
        </g>
        <g>
          <path class="cls-1" d="M78.95,139.1c.49-.51,1.09-.91,1.79-1.18,.7-.27,1.46-.41,2.3-.41,.97,0,1.85,.2,2.63,.61,.78,.41,1.51,1,2.17,1.77l3.66-3.31c-.99-1.24-2.22-2.19-3.71-2.85-1.48-.66-3.16-.99-5.04-.99-1.61,0-3.1,.26-4.46,.77-1.37,.51-2.55,1.25-3.55,2.19-1,.95-1.78,2.07-2.34,3.36-.56,1.29-.84,2.71-.84,4.26s.28,2.97,.84,4.26c.56,1.29,1.34,2.41,2.34,3.36,1,.95,2.18,1.68,3.55,2.19s2.85,.77,4.46,.77c1.88,0,3.56-.33,5.04-1,1.48-.67,2.72-1.61,3.71-2.83l-3.66-3.31c-.66,.78-1.38,1.37-2.17,1.77-.78,.41-1.66,.61-2.63,.61-.83,0-1.6-.14-2.3-.41-.7-.27-1.29-.66-1.79-1.18-.49-.51-.88-1.13-1.16-1.85-.28-.72-.42-1.51-.42-2.38s.14-1.67,.42-2.38c.28-.72,.67-1.33,1.16-1.85Z"/>
          <path class="cls-1" d="M107.74,142.96c-.68-.44-1.43-.78-2.25-1.05-.82-.26-1.65-.48-2.47-.65-.82-.17-1.58-.34-2.27-.51-.69-.16-1.24-.38-1.66-.64-.42-.26-.63-.62-.63-1.06,0-.35,.11-.66,.32-.93,.21-.27,.56-.49,1.05-.65,.48-.16,1.12-.25,1.92-.25,.89,0,1.81,.13,2.76,.39,.95,.26,1.91,.65,2.88,1.18l1.77-4.27c-1.01-.58-2.16-1.02-3.44-1.32-1.29-.3-2.6-.45-3.94-.45-2,0-3.66,.3-5,.9-1.34,.6-2.34,1.4-3.01,2.38-.67,.99-1,2.09-1,3.31,0,1.09,.21,1.98,.64,2.69,.43,.71,.98,1.28,1.66,1.72,.68,.44,1.43,.79,2.25,1.06,.82,.27,1.65,.49,2.47,.67,.82,.17,1.57,.35,2.25,.52,.68,.17,1.23,.4,1.66,.67,.43,.27,.64,.64,.64,1.1,0,.33-.11,.62-.33,.86-.22,.24-.58,.44-1.06,.58-.48,.15-1.12,.22-1.92,.22-1.18,0-2.37-.19-3.56-.57-1.19-.38-2.24-.86-3.15-1.44l-1.89,4.24c.97,.66,2.22,1.2,3.76,1.61,1.54,.42,3.14,.63,4.81,.63,2.02,0,3.69-.3,5.01-.9,1.33-.6,2.33-1.4,2.99-2.4,.67-1,1-2.09,1-3.27,0-1.07-.21-1.95-.62-2.66-.42-.71-.96-1.28-1.64-1.72Z"/>
          <path class="cls-1" d="M127.89,153.5h5.99l-9.01-20.35h-5.67l-8.98,20.35h5.87l1.59-3.95h8.63l1.59,3.95Zm-8.51-8.2l2.61-6.51,2.61,6.51h-5.22Z"/>
        </g>
      </g>
      <g>
        <path class="cls-1" d="M17.47,115.05c.65-.07,1.24-.24,1.75-.53,.52-.29,.95-.66,1.3-1.12,.35-.46,.61-.99,.76-1.59,.16-.6,.2-1.23,.13-1.91-.08-.83-.3-1.55-.66-2.16-.36-.61-.83-1.1-1.41-1.46l-1.43,1.96c.34,.22,.61,.47,.81,.75,.2,.28,.32,.62,.36,1,.03,.3,0,.57-.06,.82-.07,.25-.19,.47-.36,.66-.17,.19-.38,.35-.63,.47-.25,.12-.54,.2-.86,.23-.32,.03-.62,.01-.89-.06-.27-.07-.51-.18-.71-.34-.2-.15-.36-.35-.49-.58-.12-.23-.2-.5-.23-.8-.04-.38,.01-.73,.16-1.05,.14-.32,.36-.62,.65-.9l-1.79-1.64c-.51,.47-.87,1.05-1.1,1.71s-.3,1.42-.22,2.25c.07,.68,.24,1.29,.51,1.85,.27,.55,.63,1.02,1.06,1.41,.44,.38,.94,.67,1.5,.85,.56,.18,1.17,.24,1.82,.17Z"/>
        <path class="cls-1" d="M21.8,100.8c-.2,.21-.31,.46-.31,.77,0,.31,.09,.57,.28,.78,.19,.21,.45,.32,.78,.33,.32,0,.58-.1,.78-.3,.19-.21,.29-.46,.3-.77,0-.31-.09-.57-.27-.78-.19-.21-.44-.32-.77-.33-.32,0-.59,.1-.79,.3Z"/>
        <path class="cls-1" d="M18.34,102.47c-.27,.23-.74,.34-1.38,.33l-4.59-.07-.05,2.87,4.68,.08c1.27,.02,2.26-.33,2.98-1.04,.72-.72,1.08-1.73,1.11-3.03,.02-1.3-.31-2.33-1.01-3.07-.69-.74-1.67-1.12-2.95-1.14l-3.17-.05c-.1-.29-.23-.54-.42-.75-.39-.46-.96-.69-1.7-.7-.28,0-.52,.03-.75,.11-.22,.08-.43,.18-.61,.32l.52,1.56c.08-.07,.18-.13,.31-.17,.12-.04,.25-.06,.39-.06,.23,0,.41,.08,.54,.22,.13,.14,.2,.29,.19,.46v.49s0,0,0,0l-.02,1.32,4.59,.07c.65,.01,1.11,.13,1.37,.37,.27,.24,.4,.56,.39,.96,0,.4-.15,.71-.42,.94Z"/>
        <path class="cls-1" d="M20.29,94.99c.79-.63,1.27-1.6,1.43-2.89,.16-1.29-.06-2.35-.67-3.16-.61-.81-1.54-1.3-2.8-1.46l-4.64-.59-.35,2.8,4.55,.58c.64,.08,1.08,.25,1.32,.52,.24,.26,.33,.6,.28,1-.05,.39-.22,.69-.52,.89-.3,.2-.77,.26-1.41,.18l-4.55-.58-.36,2.84,4.64,.59c1.26,.16,2.29-.08,3.08-.71Z"/>
        <path class="cls-1" d="M16.06,81.39c.34,.4,.76,.68,1.26,.82,.44,.12,.82,.14,1.16,.06,.34-.08,.64-.23,.89-.45,.26-.22,.48-.47,.68-.77,.2-.29,.38-.59,.54-.89,.16-.3,.3-.58,.44-.83,.13-.25,.27-.45,.4-.59,.13-.14,.27-.19,.42-.15,.09,.03,.16,.08,.21,.17,.05,.09,.07,.21,.06,.38,0,.16-.05,.38-.12,.64-.13,.45-.33,.9-.6,1.34-.27,.44-.58,.82-.91,1.15l1.76,1.46c.37-.34,.72-.81,1.05-1.41,.34-.59,.6-1.23,.8-1.92,.24-.85,.31-1.59,.22-2.22-.09-.63-.31-1.15-.65-1.55-.34-.4-.75-.67-1.25-.82-.43-.12-.81-.14-1.14-.06-.33,.08-.63,.23-.88,.45-.26,.22-.48,.47-.68,.76-.2,.29-.38,.59-.53,.89-.15,.31-.3,.59-.43,.84-.13,.25-.26,.45-.39,.59-.13,.14-.26,.19-.4,.15-.09-.03-.17-.08-.23-.17-.06-.09-.09-.22-.09-.39,0-.17,.03-.39,.11-.65,.1-.36,.26-.71,.46-1.06,.21-.35,.47-.7,.79-1.05l-1.76-1.4c-.36,.36-.68,.79-.95,1.3-.27,.5-.48,1.03-.64,1.59-.24,.84-.31,1.58-.22,2.22,.09,.64,.3,1.15,.64,1.56Z"/>
        <rect class="cls-1" x="20.35" y="68.86" width="2.87" height="8.5" transform="translate(-54.36 68.49) rotate(-69.94)"/>
        <polygon class="cls-1" points="27.8 69.52 24.29 67.89 29.16 66.59 30.15 64.46 22.44 60.87 21.27 63.41 24.77 65.04 19.9 66.34 18.91 68.47 26.62 72.06 27.8 69.52"/>
        <polygon class="cls-1" points="32.2 61 29.54 59.36 30.93 57.1 33.59 58.75 35.1 56.31 27.86 51.85 26.36 54.29 28.92 55.87 27.53 58.12 24.97 56.54 23.46 58.98 30.7 63.44 32.2 61"/>
        <polygon class="cls-1" points="41.48 48.37 37.4 40.09 35.55 42.22 37.95 47.04 32.87 45.33 30.85 47.66 39.64 50.5 41.48 48.37"/>
        <rect class="cls-1" x="40.62" y="37.37" width="2.87" height="8.5" transform="translate(-17.12 41.49) rotate(-44.57)"/>
        <polygon class="cls-1" points="52.31 38.19 50.91 36.54 47.67 39.29 46.94 38.44 49.68 36.11 48.35 34.54 45.61 36.86 44.96 36.1 48.08 33.46 46.69 31.81 41.42 36.28 46.92 42.76 52.31 38.19"/>
        <polygon class="cls-1" points="42.83 34.17 43 32.8 44.39 32.85 45.68 31.75 43.24 31.27 41.46 32.78 41.53 35.27 42.83 34.17"/>
        <polygon class="cls-1" points="55.31 36.06 53.14 32.86 57.99 34.24 59.94 32.92 55.16 25.89 52.85 27.45 55.02 30.65 50.18 29.27 48.23 30.59 53 37.63 55.31 36.06"/>
        <polygon class="cls-1" points="66.59 29.42 65.7 27.51 65.98 26.6 69.1 28.25 72.1 26.84 66.85 24.05 68.35 19.21 65.52 20.53 64.29 24.51 62.99 21.72 60.44 22.91 64.04 30.61 66.59 29.42"/>
        <polygon class="cls-1" points="74.82 17.01 75.77 19.87 73.26 20.71 72.3 17.85 69.59 18.75 72.27 26.82 74.99 25.92 74 22.94 76.51 22.1 77.51 25.08 80.22 24.17 77.54 16.11 74.82 17.01"/>
        <path class="cls-1" d="M85.74,23.16c.67-.14,1.28-.37,1.8-.7,.53-.33,.96-.73,1.3-1.21,.34-.48,.57-1.01,.7-1.59,.13-.58,.13-1.18,0-1.81-.13-.63-.36-1.19-.7-1.67-.34-.48-.76-.87-1.26-1.18-.5-.31-1.06-.51-1.67-.61s-1.26-.08-1.95,.06c-.67,.14-1.28,.37-1.81,.7-.53,.33-.97,.74-1.31,1.21-.34,.48-.57,1-.7,1.58-.13,.58-.13,1.18,0,1.82,.13,.63,.36,1.18,.7,1.67,.34,.48,.76,.88,1.26,1.19,.5,.31,1.06,.51,1.68,.61,.62,.1,1.27,.08,1.95-.06Zm-2.44-3.13c-.15-.24-.25-.52-.32-.85-.07-.33-.08-.63-.03-.9,.04-.28,.13-.52,.27-.74,.13-.21,.31-.39,.51-.53,.21-.14,.44-.24,.7-.29,.26-.05,.52-.06,.76,0s.47,.15,.68,.29c.21,.14,.38,.34,.53,.57,.15,.24,.25,.52,.32,.85,.07,.33,.08,.63,.03,.9-.04,.28-.13,.52-.27,.74-.13,.21-.31,.39-.51,.53-.21,.14-.44,.24-.7,.29-.26,.05-.52,.06-.76,0s-.47-.15-.68-.29c-.21-.14-.38-.34-.53-.57Z"/>
        <path class="cls-1" d="M93.51,20.28l3.22-.26,.69,1.43,2.95-.24-4.39-8.18-2.81,.23-3.02,8.77,2.91-.23,.45-1.52Zm1.27-4.32l.99,2.07-1.64,.13,.65-2.2Z"/>
        <polygon class="cls-1" points="109.74 21.72 113.05 21.97 109.85 16.96 113.53 13.48 110.41 13.25 107.39 16.1 107.63 13.03 104.82 12.82 104.17 21.3 106.98 21.51 107.14 19.41 107.83 18.75 109.74 21.72"/>
        <polygon class="cls-1" points="116.02 22.58 116.61 19.5 119.21 20.01 118.62 23.08 121.43 23.63 123.04 15.28 120.23 14.73 119.66 17.69 117.06 17.19 117.63 14.23 114.82 13.69 113.2 22.04 116.02 22.58"/>
        <path class="cls-1" d="M123.84,23.2c.29,.51,.67,.96,1.16,1.35,.49,.39,1.07,.69,1.73,.9,.65,.21,1.29,.3,1.92,.27,.62-.03,1.2-.17,1.73-.42,.53-.25,.99-.6,1.39-1.04,.39-.44,.69-.97,.89-1.58,.2-.62,.27-1.22,.21-1.8-.06-.59-.24-1.14-.52-1.65-.29-.51-.67-.96-1.16-1.35-.49-.39-1.06-.69-1.73-.9-.66-.21-1.3-.3-1.92-.28-.63,.03-1.2,.17-1.74,.42-.53,.25-.99,.59-1.39,1.03-.39,.44-.69,.97-.89,1.58-.2,.61-.26,1.21-.2,1.8,.06,.59,.23,1.14,.52,1.65Zm2.44-2.56c.1-.32,.24-.58,.41-.8,.17-.22,.37-.39,.59-.51s.46-.19,.71-.21c.25-.02,.5,0,.76,.09,.25,.08,.48,.2,.67,.37,.19,.16,.34,.36,.45,.59s.17,.48,.18,.76c.01,.28-.03,.58-.14,.89-.1,.32-.24,.58-.41,.8-.17,.22-.37,.39-.59,.51-.22,.12-.46,.19-.71,.21-.25,.02-.5,0-.76-.09-.25-.08-.48-.2-.67-.37-.19-.16-.34-.36-.45-.59-.11-.23-.17-.48-.18-.76-.01-.28,.03-.58,.14-.89Z"/>
        <path class="cls-1" d="M133.78,27.86l1.14-1.11,2.94,1.36-.1,1.58,2.69,1.24,.19-9.28-2.56-1.18-6.94,6.16,2.65,1.22Zm4.37-4.25l-.15,2.29-1.49-.69,1.65-1.6Z"/>
        <polygon class="cls-1" points="150.65 37.56 155.41 30.51 153.04 28.91 151.35 31.4 149.16 29.92 150.84 27.42 148.47 25.82 143.71 32.86 146.08 34.47 147.84 31.87 150.03 33.35 148.27 35.95 150.65 37.56"/>
        <path class="cls-1" d="M154.09,34.81c-.42,.48-.72,1.01-.89,1.57-.18,.57-.23,1.14-.17,1.73,.06,.58,.24,1.15,.54,1.7,.3,.55,.71,1.05,1.24,1.51,.52,.45,1.07,.79,1.65,1,.58,.22,1.17,.31,1.76,.29,.59-.02,1.15-.16,1.68-.41,.54-.25,1.01-.62,1.43-1.1,.42-.49,.72-1.02,.9-1.58,.17-.56,.23-1.14,.17-1.72-.06-.58-.24-1.15-.54-1.7-.3-.55-.71-1.05-1.23-1.51-.52-.45-1.07-.79-1.66-1.01-.59-.22-1.17-.32-1.76-.3-.59,.02-1.15,.16-1.68,.41-.53,.25-1.01,.62-1.44,1.11Zm1.71,2.66c.1-.26,.26-.52,.48-.77,.22-.25,.45-.44,.7-.58,.25-.13,.49-.21,.75-.24,.25-.02,.5,0,.73,.08,.24,.08,.46,.2,.66,.38,.2,.18,.36,.38,.47,.6,.11,.22,.17,.46,.18,.71,.01,.25-.03,.51-.13,.77-.1,.26-.26,.52-.48,.77s-.45,.44-.7,.58c-.25,.14-.49,.21-.75,.24-.25,.02-.5,0-.73-.08s-.46-.2-.66-.38c-.2-.18-.36-.38-.47-.6-.11-.22-.17-.46-.18-.71-.01-.25,.03-.51,.13-.77Z"/>
        <path class="cls-1" d="M153.75,41.33c-.29,.01-.54,.14-.75,.38-.21,.24-.3,.51-.27,.79,.03,.28,.17,.52,.4,.73,.23,.2,.49,.3,.77,.29,.28,0,.53-.13,.74-.38,.21-.24,.3-.51,.27-.8-.03-.29-.16-.53-.39-.73-.23-.2-.49-.3-.78-.28Z"/>
        <path class="cls-1" d="M160.92,43.27c-.24,.54-.37,1.1-.37,1.68,0,.58,.11,1.16,.34,1.73,.23,.57,.58,1.11,1.04,1.61,.56,.62,1.17,1.06,1.82,1.34,.65,.28,1.32,.39,2.01,.33l-.03-2.43c-.4,.03-.77-.01-1.1-.12-.33-.11-.63-.3-.88-.58-.2-.22-.35-.45-.44-.7-.09-.24-.13-.49-.11-.75,.02-.25,.09-.51,.22-.76,.13-.25,.31-.48,.55-.7,.24-.22,.49-.38,.75-.49,.26-.11,.52-.16,.77-.15,.25,0,.5,.06,.74,.18,.24,.11,.45,.28,.66,.5,.26,.28,.42,.59,.5,.93,.08,.34,.08,.71,.02,1.11l2.41,.25c.12-.68,.07-1.36-.14-2.03-.22-.67-.61-1.32-1.17-1.93-.46-.5-.96-.89-1.51-1.18-.55-.28-1.11-.45-1.69-.49-.58-.05-1.15,.03-1.71,.22-.56,.19-1.08,.51-1.56,.95-.48,.44-.85,.93-1.09,1.47Z"/>
        <polygon class="cls-1" points="168.63 56.41 171.77 54.38 170.27 57.55 170.95 58.61 174.57 58.48 171.32 60.6 172.74 62.79 179.87 58.16 178.59 56.18 173.33 56.37 175.63 51.59 174.35 49.61 167.21 54.22 168.63 56.41"/>
        <path class="cls-1" d="M174.1,65.61l1.58-.12,1.39,2.92-1.09,1.15,1.27,2.68,6.08-7.01-1.21-2.54-9.27,.3,1.25,2.63Zm6.08-.47l-1.58,1.66-.71-1.49,2.29-.18Z"/>
        <polygon class="cls-1" points="186.37 65.47 185.25 63.11 182.8 62.5 183.59 64.15 186.37 65.47"/>
        <polygon class="cls-1" points="185.75 71.05 184.74 68.2 180.73 73.02 177.79 74.05 178.74 76.76 181.65 75.73 187.83 76.95 186.91 74.34 183.55 73.67 185.75 71.05"/>
        <polygon class="cls-1" points="187.21 83.99 181.05 85.2 181.61 88.02 187.77 86.8 188.25 89.24 190.43 88.82 188.91 81.12 186.73 81.55 187.21 83.99"/>
        <polygon class="cls-1" points="193.36 91.46 191.24 90.11 191.46 91.91 193.67 94.05 193.36 91.46"/>
        <rect class="cls-1" x="182.23" y="90.53" width="8.5" height="2.87" transform="translate(-9.73 23.16) rotate(-6.93)"/>
        <polygon class="cls-1" points="187.49 100.51 191.23 97.14 191.14 94.79 182.65 95.1 182.75 97.89 186.61 97.75 182.87 101.12 182.96 103.48 191.45 103.16 191.35 100.37 187.49 100.51"/>
        <polygon class="cls-1" points="182.71 107.49 185.83 107.74 185.62 110.38 182.5 110.13 182.27 112.99 190.75 113.66 190.98 110.8 187.97 110.56 188.18 107.92 191.18 108.16 191.41 105.3 182.93 104.63 182.71 107.49"/>
        <path class="cls-1" d="M21.46,136.92c-.31-.24-.54-.56-.7-.95-.12-.31-.19-.61-.19-.9s.06-.57,.18-.82c.12-.26,.29-.49,.53-.7,.23-.21,.51-.38,.85-.52,.33-.14,.66-.21,.97-.22,.31,0,.6,.04,.87,.14,.26,.1,.5,.26,.7,.47,.2,.21,.36,.47,.49,.78,.16,.39,.21,.78,.16,1.17-.05,.39-.19,.77-.41,1.17l2.42,1.19c.39-.66,.6-1.39,.64-2.18,.03-.79-.13-1.61-.47-2.47-.28-.7-.66-1.31-1.12-1.81-.46-.51-.99-.9-1.57-1.17-.59-.27-1.21-.42-1.87-.43-.66-.02-1.33,.11-2,.39s-1.25,.64-1.71,1.11c-.46,.47-.81,1.01-1.04,1.61-.23,.6-.34,1.25-.32,1.94,.02,.69,.17,1.38,.46,2.08,.35,.86,.81,1.56,1.38,2.1,.57,.54,1.23,.92,1.96,1.12l.91-2.54c-.43-.13-.8-.31-1.11-.55Z"/>
        <path class="cls-1" d="M27.97,149.25c.66-.06,1.3-.27,1.92-.62,.63-.35,1.14-.79,1.53-1.31,.39-.52,.67-1.1,.82-1.74,.16-.63,.18-1.29,.08-1.98-.1-.69-.35-1.37-.72-2.04-.37-.67-.83-1.23-1.36-1.68-.53-.45-1.11-.78-1.73-.98-.62-.2-1.26-.27-1.91-.21-.65,.06-1.29,.27-1.92,.62-.62,.35-1.13,.78-1.53,1.31-.4,.53-.67,1.11-.83,1.74-.16,.63-.18,1.3-.07,1.99,.11,.69,.35,1.37,.73,2.05,.37,.67,.83,1.23,1.35,1.67s1.1,.77,1.73,.97c.62,.2,1.26,.27,1.92,.2Zm-1.47-3.11c-.27-.07-.52-.19-.74-.36-.22-.17-.4-.39-.55-.65-.15-.26-.23-.53-.26-.8-.03-.28,0-.55,.08-.82,.08-.27,.22-.52,.43-.76,.2-.24,.47-.45,.79-.63,.32-.18,.64-.29,.95-.34,.31-.05,.6-.04,.87,.03,.27,.07,.52,.19,.74,.36,.22,.17,.4,.39,.55,.65,.15,.26,.23,.53,.26,.8,.03,.28,0,.55-.08,.82-.08,.27-.23,.52-.43,.76-.2,.24-.47,.45-.79,.63-.32,.18-.64,.29-.95,.34-.31,.05-.6,.04-.87-.03Z"/>
        <polygon class="cls-1" points="39.66 153.8 33.84 154.49 35.96 148.97 34.36 146.89 26.85 152.65 28.62 154.96 31.93 152.42 30.55 156.07 31.4 157.19 35.4 156.71 31.99 159.36 33.76 161.66 41.25 155.88 39.66 153.8"/>
        <path class="cls-1" d="M46.79,163.7c.13-.63,.06-1.27-.19-1.93-.25-.66-.7-1.3-1.32-1.92l-3.23-3.21-6.66,6.72,2.27,2.25,1.64-1.65,.97,.96c.63,.62,1.27,1.06,1.94,1.3,.66,.25,1.31,.3,1.93,.17,.62-.13,1.19-.45,1.71-.97,.51-.52,.83-1.09,.96-1.72Zm-3.25-.55c-.24,.24-.51,.36-.8,.35-.29,0-.59-.17-.91-.48l-.83-.82,1.56-1.57,.83,.82c.31,.31,.48,.61,.49,.9,.01,.29-.1,.56-.35,.8Z"/>
        <path class="cls-1" d="M53.44,166.89l-3.14,4.03c-.44,.57-.86,.89-1.25,.97-.39,.08-.76-.02-1.12-.3-.35-.27-.53-.61-.55-1.01-.02-.4,.19-.88,.63-1.45l3.14-4.03-2.52-1.96-3.2,4.1c-.87,1.12-1.23,2.23-1.07,3.35,.16,1.12,.81,2.12,1.95,3.01,1.14,.89,2.28,1.28,3.4,1.16,1.12-.12,2.12-.74,2.99-1.85l3.2-4.1-2.47-1.93Z"/>
        <polygon class="cls-1" points="63.55 173.49 56.1 168.93 54.81 171.04 57.17 172.49 53.52 178.45 56.24 180.12 59.89 174.15 62.25 175.6 63.55 173.49"/>
        <polygon class="cls-1" points="64.3 180.27 67.92 181.99 68.9 179.91 65.28 178.2 65.76 177.2 69.88 179.15 70.91 176.97 63.95 173.68 59.9 182.23 67.01 185.6 68.04 183.42 63.77 181.4 64.3 180.27"/>
        <path class="cls-1" d="M78.16,179.98c-.52-.48-1.19-.86-2.03-1.15l-4.31-1.47-3.05,8.96,3.02,1.03,.77-2.25,.82,.28,.75,2.77,3.23,1.1-.94-3.4c.59-.09,1.1-.3,1.54-.63,.5-.39,.87-.92,1.11-1.62,.24-.69,.27-1.35,.11-1.97-.16-.62-.5-1.17-1.02-1.65Zm-2.14,2.58c-.11,.32-.3,.55-.56,.67-.26,.12-.61,.11-1.02-.03l-1.1-.37,.71-2.1,1.1,.37c.42,.14,.7,.34,.83,.6,.14,.26,.15,.55,.04,.87Z"/>
        <path class="cls-1" d="M87.15,184.24c.09-.08,.23-.13,.42-.15,.19-.02,.43,0,.73,.04,.41,.07,.82,.2,1.23,.38,.41,.19,.83,.44,1.25,.74l1.33-2.12c-.44-.36-.96-.65-1.55-.89-.59-.24-1.2-.41-1.83-.51-.96-.16-1.79-.15-2.48,.02-.69,.18-1.24,.47-1.64,.9-.4,.42-.65,.92-.75,1.5-.08,.5-.06,.93,.07,1.29,.13,.36,.33,.68,.6,.93,.27,.26,.58,.48,.93,.66,.35,.19,.7,.35,1.05,.48,.35,.14,.68,.26,.97,.38s.53,.24,.7,.37c.17,.13,.24,.28,.21,.45-.02,.11-.07,.19-.17,.25-.09,.06-.23,.1-.41,.11-.18,.01-.42,0-.72-.06-.52-.09-1.03-.25-1.55-.5-.52-.25-.98-.54-1.38-.87l-1.4,2.12c.42,.36,.98,.7,1.68,1,.7,.3,1.44,.52,2.22,.65,.97,.16,1.8,.15,2.49-.03,.69-.18,1.23-.48,1.64-.9,.4-.42,.65-.92,.75-1.48,.08-.49,.06-.91-.07-1.27-.13-.36-.33-.67-.61-.92-.27-.26-.58-.48-.92-.66-.34-.19-.69-.34-1.05-.48-.36-.13-.68-.26-.98-.37-.3-.11-.53-.23-.7-.36-.17-.12-.24-.27-.22-.43,.02-.11,.07-.2,.16-.27Z"/>
        <path class="cls-1" d="M95.95,186.58c.12-.29,.29-.53,.49-.72,.2-.2,.45-.34,.72-.43,.28-.09,.58-.13,.91-.11,.42,.02,.8,.14,1.12,.35,.33,.21,.62,.5,.88,.87l2.11-1.69c-.43-.64-1-1.14-1.7-1.5-.7-.36-1.51-.57-2.44-.62-.76-.04-1.46,.04-2.12,.24-.66,.2-1.23,.51-1.73,.93-.5,.42-.89,.92-1.19,1.51-.29,.59-.46,1.25-.5,1.98-.04,.73,.05,1.4,.28,2.02,.23,.62,.57,1.16,1.01,1.63,.45,.47,.99,.84,1.62,1.11,.63,.27,1.32,.43,2.08,.47,.93,.05,1.76-.07,2.49-.36,.73-.29,1.35-.72,1.85-1.3l-1.91-1.9c-.3,.34-.62,.59-.97,.77-.35,.18-.73,.25-1.16,.23-.33-.02-.63-.09-.9-.21s-.49-.29-.67-.51c-.18-.22-.32-.48-.41-.77-.09-.3-.13-.63-.11-.99,.02-.36,.09-.68,.22-.97Z"/>
        <rect class="cls-1" x="103" y="182.98" width="3.19" height="9.46" transform="translate(-5.82 3.36) rotate(-1.79)"/>
        <polygon class="cls-1" points="111.2 189.59 111.06 188.36 115.03 187.91 114.78 185.62 110.8 186.07 110.68 184.97 115.2 184.46 114.93 182.07 107.29 182.93 108.35 192.33 116.17 191.45 115.9 189.06 111.2 189.59"/>
        <polygon class="cls-1" points="121.97 180.52 122.95 184.71 118.47 181.34 115.91 181.94 118.08 191.15 121.11 190.44 120.12 186.25 124.61 189.62 127.16 189.01 124.99 179.8 121.97 180.52"/>
        <path class="cls-1" d="M134.22,183.68c-.25,.3-.57,.52-.97,.67-.31,.12-.61,.17-.91,.16-.29,0-.56-.07-.82-.2-.25-.13-.48-.31-.69-.55-.2-.24-.37-.52-.49-.86-.13-.34-.19-.66-.19-.98,0-.31,.05-.6,.16-.86,.11-.26,.27-.49,.49-.69s.48-.35,.79-.47c.4-.15,.79-.19,1.17-.13,.38,.06,.77,.21,1.15,.44l1.26-2.39c-.65-.41-1.37-.64-2.16-.7-.78-.05-1.61,.08-2.48,.41-.71,.26-1.32,.62-1.84,1.07-.52,.45-.93,.96-1.21,1.54-.29,.58-.45,1.2-.49,1.85-.03,.66,.08,1.33,.33,2.01,.25,.68,.61,1.26,1.07,1.74,.46,.47,.98,.84,1.58,1.08,.6,.25,1.24,.37,1.93,.37,.69,0,1.39-.13,2.1-.4,.87-.32,1.58-.77,2.14-1.32,.56-.56,.95-1.2,1.18-1.93l-2.52-.98c-.14,.43-.33,.79-.58,1.09Z"/>
        <polygon class="cls-1" points="141.04 180.87 140.48 179.76 144.05 177.95 143 175.9 139.44 177.72 138.94 176.73 143 174.66 141.9 172.52 135.05 176.01 139.34 184.44 146.35 180.87 145.26 178.73 141.04 180.87"/>
        <path class="cls-1" d="M148.58,168.15l2.31,10.07,2.61-1.93-.47-1.7,2.89-2.14,1.49,.95,2.65-1.96-8.96-5.14-2.52,1.87Zm5.26,2.97l-1.47,1.09-.68-2.46,2.15,1.37Z"/>
        <polygon class="cls-1" points="161.53 166.58 156.76 161.48 154.42 163.65 160.88 170.57 166.34 165.48 164.65 163.67 161.53 166.58"/>
        <path class="cls-1" d="M170.09,154.73l-3.95-3.39-2.04,2.38,3.88,3.33c.55,.47,.85,.9,.91,1.29,.06,.39-.05,.76-.35,1.1-.29,.34-.63,.5-1.03,.51-.4,0-.87-.23-1.42-.7l-3.88-3.33-2.08,2.42,3.95,3.39c1.07,.92,2.17,1.33,3.3,1.22,1.12-.11,2.16-.71,3.1-1.81,.94-1.1,1.38-2.22,1.32-3.34s-.64-2.15-1.71-3.07Z"/>
        <polygon class="cls-1" points="171.48 143.27 174.1 148.52 168.19 148.39 166.78 150.6 174.74 155.71 176.31 153.26 172.8 151.01 176.7 151.07 177.46 149.89 175.66 146.29 179.3 148.6 180.87 146.15 172.89 141.07 171.48 143.27"/>
        <polygon class="cls-1" points="175.93 134.44 179.84 136.23 174.44 137.71 173.35 140.09 181.95 144.03 183.24 141.2 179.33 139.41 184.74 137.93 185.83 135.54 177.22 131.61 175.93 134.44"/>
        <rect class="cls-1" x="180.94" y="125.75" width="3.19" height="9.46" transform="translate(-.79 259.86) rotate(-70.77)"/>
        <circle class="cls-1" cx="18.13" cy="122.94" r="2.76"/>
        <circle class="cls-1" cx="185.62" cy="120.9" r="2.76"/>
      </g>
    </g>
  </g>
</svg>